<svg width="235" height="25" viewBox="0 0 235 25" fill="none" xmlns="http://www.w3.org/2000/svg">
<path fill-rule="evenodd" clip-rule="evenodd" d="M15.435 0C15.5483 1.39629 15.0801 2.77927 14.1298 3.85524C13.6748 4.38905 13.0972 4.81852 12.4407 5.1113C11.7841 5.40408 11.0657 5.55253 10.3395 5.54548C10.2932 4.87402 10.3876 4.20053 10.6174 3.56351C10.8472 2.92649 11.2079 2.33844 11.6788 1.83297C12.642 0.798279 13.9831 0.143823 15.435 0ZM18.0826 10.1624C17.6001 10.9642 17.3405 11.8681 17.3279 12.7899C17.3291 13.8269 17.6539 14.8405 18.2618 15.7045C18.8697 16.5686 19.7338 17.2447 20.7464 17.6486C20.3482 18.8684 19.7481 20.0211 18.9683 21.0642C17.9209 22.5418 16.8228 23.9854 15.0799 24.0121C14.251 24.0301 13.6914 23.8053 13.1084 23.5711C12.5002 23.3267 11.8665 23.0721 10.8748 23.0721C9.82304 23.0721 9.16092 23.3349 8.52233 23.5884C7.97048 23.8074 7.43621 24.0195 6.68325 24.049C5.02339 24.107 3.75485 22.4719 2.66944 21.0081C0.500003 18.0187 -1.18929 12.5836 1.07545 8.88546C1.59827 7.99936 2.35554 7.25611 3.27347 6.72811C4.19141 6.20012 5.2387 5.90539 6.31331 5.87265C7.25471 5.85438 8.15805 6.1966 8.95004 6.49663C9.55572 6.72609 10.0963 6.93087 10.5389 6.93087C10.928 6.93087 11.4535 6.73417 12.0659 6.50494C13.0306 6.14384 14.2109 5.702 15.4137 5.82108C16.3356 5.84828 17.238 6.07784 18.0493 6.49151C18.8606 6.90519 19.5585 7.49159 20.0875 8.20414C19.2547 8.68698 18.5651 9.36063 18.0826 10.1624Z" fill="#1D1818"/>
<path d="M32.1587 17.3203H33.3584L34.2788 14.6987H37.9224L38.8428 17.3203H40.0425L36.6655 8.16064H35.5356L32.1587 17.3203ZM36.0879 9.53174H36.1133L37.5859 13.7275H34.6152L36.0879 9.53174ZM42.4005 17.3203H43.5304L45.9552 10.7188H44.8063L42.9781 16.146H42.9528L41.131 10.7188H39.9694L42.4005 17.3203ZM48.7576 17.4473C49.6399 17.4473 50.4333 16.9712 50.8205 16.2476H50.8459V17.3203H51.9504V12.7563C51.9504 11.436 50.9729 10.5918 49.4114 10.5918C47.8562 10.5918 46.9104 11.4678 46.8152 12.5532L46.8088 12.623H47.8752L47.8879 12.5659C48.0149 11.9756 48.5481 11.5693 49.3987 11.5693C50.3191 11.5693 50.8459 12.0581 50.8459 12.8643V13.4165L48.9543 13.5244C47.4372 13.6133 46.5613 14.3179 46.5613 15.4414V15.4541C46.5613 16.6538 47.4436 17.4473 48.7576 17.4473ZM47.6912 15.4541V15.4414C47.6912 14.8257 48.199 14.4321 49.0813 14.3813L50.8459 14.2734V14.813C50.8459 15.7715 50.0461 16.4888 49.0051 16.4888C48.2117 16.4888 47.6912 16.0889 47.6912 15.4541ZM54.1053 9.60156C54.4925 9.60156 54.7972 9.29053 54.7972 8.90967C54.7972 8.52246 54.4925 8.21777 54.1053 8.21777C53.7245 8.21777 53.4134 8.52246 53.4134 8.90967C53.4134 9.29053 53.7245 9.60156 54.1053 9.60156ZM53.5531 17.3203H54.6576V10.7188H53.5531V17.3203ZM56.3491 17.3203H57.4536V8.16064H56.3491V17.3203ZM61.005 17.4473C61.8873 17.4473 62.6808 16.9712 63.068 16.2476H63.0934V17.3203H64.1979V12.7563C64.1979 11.436 63.2203 10.5918 61.6588 10.5918C60.1036 10.5918 59.1578 11.4678 59.0626 12.5532L59.0562 12.623H60.1227L60.1354 12.5659C60.2623 11.9756 60.7955 11.5693 61.6461 11.5693C62.5665 11.5693 63.0934 12.0581 63.0934 12.8643V13.4165L61.2018 13.5244C59.6847 13.6133 58.8087 14.3179 58.8087 15.4414V15.4541C58.8087 16.6538 59.691 17.4473 61.005 17.4473ZM59.9386 15.4541V15.4414C59.9386 14.8257 60.4464 14.4321 61.3287 14.3813L63.0934 14.2734V14.813C63.0934 15.7715 62.2936 16.4888 61.2525 16.4888C60.4591 16.4888 59.9386 16.0889 59.9386 15.4541ZM69.0124 17.4473C70.7009 17.4473 71.8181 16.1016 71.8181 14.0195V14.0132C71.8181 11.9312 70.6882 10.5918 69.0315 10.5918C68.0984 10.5918 67.3303 11.0615 66.9177 11.8232H66.8923V8.16064H65.7878V17.3203H66.8923V16.2031H66.9177C67.3303 16.9712 68.0666 17.4473 69.0124 17.4473ZM68.7966 16.4697C67.6794 16.4697 66.886 15.4985 66.886 14.0195V14.0132C66.886 12.5405 67.6858 11.5693 68.7966 11.5693C69.9646 11.5693 70.6882 12.5088 70.6882 14.0132V14.0195C70.6882 15.5366 69.9646 16.4697 68.7966 16.4697ZM73.1161 17.3203H74.2205V8.16064H73.1161V17.3203ZM78.559 17.4473C80 17.4473 81.0791 16.584 81.2949 15.4922L81.3076 15.4287H80.2221L80.2031 15.4858C80.0127 16.0508 79.4223 16.4697 78.5844 16.4697C77.4101 16.4697 76.6611 15.6763 76.6357 14.3179H81.3901V13.9116C81.3901 11.9312 80.292 10.5918 78.4892 10.5918C76.6865 10.5918 75.5185 11.9946 75.5185 14.0386V14.0449C75.5185 16.1206 76.6611 17.4473 78.559 17.4473ZM78.4829 11.5693C79.4477 11.5693 80.1587 12.1724 80.2666 13.4546H76.6547C76.7754 12.2231 77.5244 11.5693 78.4829 11.5693ZM88.1691 17.4473C89.9909 17.4473 91.2224 16.127 91.2224 14.0195V14.0068C91.2224 11.8994 89.9846 10.5918 88.1628 10.5918C86.341 10.5918 85.1096 11.9058 85.1096 14.0068V14.0195C85.1096 16.1206 86.3347 17.4473 88.1691 17.4473ZM88.1755 16.4697C87.0075 16.4697 86.2395 15.5747 86.2395 14.0195V14.0068C86.2395 12.4644 87.0139 11.5693 88.1628 11.5693C89.3308 11.5693 90.0925 12.458 90.0925 14.0068V14.0195C90.0925 15.5684 89.3371 16.4697 88.1755 16.4697ZM92.4696 17.3203H93.574V13.4355C93.574 12.312 94.2532 11.5693 95.2943 11.5693C96.3099 11.5693 96.8113 12.1597 96.8113 13.2324V17.3203H97.9158V13.0356C97.9158 11.5312 97.0779 10.5918 95.6307 10.5918C94.6278 10.5918 93.9549 11.0425 93.5994 11.6582H93.574V10.7188H92.4696V17.3203ZM102.873 9.60156C103.26 9.60156 103.565 9.29053 103.565 8.90967C103.565 8.52246 103.26 8.21777 102.873 8.21777C102.492 8.21777 102.181 8.52246 102.181 8.90967C102.181 9.29053 102.492 9.60156 102.873 9.60156ZM102.321 17.3203H103.425V10.7188H102.321V17.3203ZM109.103 17.4727C111.699 17.4727 113.318 15.6509 113.318 12.7437V12.731C113.318 9.83008 111.693 8.0083 109.103 8.0083C106.507 8.0083 104.876 9.83008 104.876 12.731V12.7437C104.876 15.6509 106.501 17.4727 109.103 17.4727ZM109.103 16.4189C107.224 16.4189 106.044 14.9971 106.044 12.7437V12.731C106.044 10.4775 107.231 9.06201 109.103 9.06201C110.969 9.06201 112.15 10.4839 112.15 12.731V12.7437C112.15 14.978 110.988 16.4189 109.103 16.4189ZM117.866 17.4727C119.961 17.4727 121.249 16.4443 121.249 14.8193V14.813C121.249 13.4165 120.462 12.6548 118.583 12.2422L117.568 12.02C116.374 11.7598 115.822 11.29 115.822 10.541V10.5347C115.822 9.65234 116.622 9.06836 117.847 9.06201C119.009 9.06201 119.789 9.61426 119.929 10.5474L119.942 10.6362H121.084L121.078 10.541C120.976 9.04297 119.669 8.0083 117.879 8.0083C115.993 8.0083 114.66 9.06201 114.654 10.5664V10.5728C114.654 11.9121 115.492 12.7183 117.282 13.1118L118.298 13.334C119.554 13.6133 120.081 14.064 120.081 14.8701V14.8765C120.081 15.8223 119.25 16.4189 117.929 16.4189C116.603 16.4189 115.714 15.854 115.581 14.9336L115.568 14.8447H114.426L114.432 14.9336C114.546 16.5015 115.886 17.4727 117.866 17.4727Z" fill="#1D1818"/>
<path d="M143.864 4.81006L145.63 10.0377H151.343L146.721 13.2686L148.487 18.4963L143.864 15.2654L139.242 18.4963L141.007 13.2686L136.385 10.0377H142.099L143.864 4.81006Z" fill="#1D1818"/>
<path d="M164.431 4.81006L166.196 10.0377H171.91L167.287 13.2686L169.053 18.4963L164.431 15.2654L159.808 18.4963L161.574 13.2686L156.951 10.0377H162.665L164.431 4.81006Z" fill="#1D1818"/>
<path d="M185 4.81006L186.766 10.0377H192.479L187.857 13.2686L189.622 18.4963L185 15.2654L180.377 18.4963L182.143 13.2686L177.521 10.0377H183.234L185 4.81006Z" fill="#1D1818"/>
<path d="M205.568 4.81006L207.333 10.0377H213.047L208.425 13.2686L210.19 18.4963L205.568 15.2654L200.945 18.4963L202.711 13.2686L198.089 10.0377H203.802L205.568 4.81006Z" fill="#1D1818"/>
<path d="M226.138 4.81006L227.903 10.0377H233.617L228.994 13.2686L230.76 18.4963L226.138 15.2654L221.515 18.4963L223.281 13.2686L218.658 10.0377H224.372L226.138 4.81006Z" fill="#1D1818"/>
<path fill-rule="evenodd" clip-rule="evenodd" d="M228 16.5672L230.76 18.4964L228.994 13.2687L233.617 10.0378H228V16.5672Z" fill="#87827C"/>
</svg>
