<svg xmlns="http://www.w3.org/2000/svg" width="200" height="60" viewBox="0 0 180 47" fill="none"><g clip-path="url(#clip0)"><g><path fill-rule="evenodd" clip-rule="evenodd" d="M71.2231 9.72027C71.2231 7.75404 72.4725 6.38623 74.275 6.38623C76.0979 6.38623 77.3473 7.75404 77.3473 9.72027V34.8538C77.3473 36.82 76.0979 38.1878 74.275 38.1878C72.7183 38.1878 71.5918 37.1833 71.2846 35.6445C69.646 37.5039 67.4134 38.316 64.4844 38.316C58.2373 38.316 53.5264 33.3577 53.5264 25.9203C53.5264 18.4828 58.2373 13.5245 64.4844 13.5245C67.27 13.5245 69.6255 14.4862 71.2231 16.2815V9.72027ZM59.8349 25.9203C59.8349 29.8741 62.2928 32.4387 65.57 32.4387C69.011 32.4387 71.3255 29.639 71.3255 25.9203C71.3255 22.2015 69.011 19.4018 65.57 19.4018C62.2928 19.4018 59.8349 21.9664 59.8349 25.9203Z" fill="#1D1818"></path> <path fill-rule="evenodd" clip-rule="evenodd" d="M104.101 25.9203C104.101 33.4432 99.021 38.316 91.9546 38.316C84.9087 38.316 79.829 33.4432 79.829 25.9203C79.829 18.3973 84.9087 13.5245 91.9546 13.5245C99.021 13.5245 104.101 18.3973 104.101 25.9203ZM86.1376 25.9203C86.1376 29.7886 88.5545 32.4387 91.9546 32.4387C95.3751 32.4387 97.7921 29.7886 97.7921 25.9203C97.7921 22.0519 95.3751 19.4018 91.9546 19.4018C88.5545 19.4018 86.1376 22.0519 86.1376 25.9203Z" fill="#1D1818"></path> <path d="M119.077 13.5245C116.373 13.5245 114.038 14.5076 112.645 16.3029C112.399 14.7213 111.252 13.6527 109.655 13.6527C107.852 13.6527 106.582 15.0205 106.582 16.9868V34.8538C106.582 36.7986 107.852 38.1878 109.655 38.1878C111.457 38.1878 112.707 36.82 112.707 34.8538V24.7876C112.707 21.5176 114.591 19.3377 117.622 19.3377C120.449 19.3377 122.19 21.1116 122.19 24.5738V34.8538C122.19 36.7345 123.439 38.1878 125.262 38.1878C127.044 38.1878 128.335 36.7773 128.335 34.8538V23.5693C128.335 17.1364 124.586 13.5245 119.077 13.5245Z" fill="#1D1818"></path> <path d="M146.835 16.9868C146.835 15.0205 148.105 13.6527 149.887 13.6527C151.69 13.6527 152.96 15.0419 152.96 16.9868V34.8538C152.96 36.82 151.69 38.1878 149.887 38.1878C148.31 38.1878 147.143 37.1192 146.897 35.5377C145.504 37.3329 143.169 38.316 140.465 38.316C134.956 38.316 131.207 34.7042 131.207 28.2712V16.9868C131.207 15.0633 132.498 13.6527 134.28 13.6527C136.103 13.6527 137.352 15.106 137.352 16.9868V27.2667C137.352 30.729 139.093 32.5029 141.92 32.5029C144.951 32.5029 146.835 30.3229 146.835 27.053V16.9868Z" fill="#1D1818"></path> <path d="M159.25 10.5933C159.25 8.77237 160.671 7.29621 162.424 7.29621C164.177 7.29621 165.599 8.77237 165.599 10.5933V14.0216H168.94C170.601 14.0216 171.947 15.4201 171.947 17.1452C171.947 18.8703 170.601 20.2687 168.94 20.2687H165.599V35.019C165.599 36.8399 164.177 38.3161 162.424 38.3161C160.671 38.3161 159.25 36.8399 159.25 35.019V20.2687H157.579C155.918 20.2687 154.571 18.8703 154.571 17.1452C154.571 15.4201 155.918 14.0216 157.579 14.0216H159.25V10.5933Z" fill="#1D1818"></path></g> <path fill-rule="evenodd" clip-rule="evenodd" d="M9.00726 0C4.03269 0 0 4.11017 0 9.18033V37.4863C0 42.5565 4.03269 46.6667 9.00726 46.6667H21.7676C34.204 46.6667 44.2857 36.3912 44.2857 23.7158V22.9508C44.2857 10.2754 34.204 0 21.7676 0H9.00726ZM16.3664 23.0877C16.3664 21.7312 15.2888 20.6315 13.9596 20.6315C12.6303 20.6315 11.5527 21.7312 11.5527 23.0877C11.5527 28.7108 15.8993 33.4034 21.4207 33.4034C26.9422 33.4034 31.2888 28.7108 31.2888 23.0877C31.2888 21.7312 30.2112 20.6315 28.8819 20.6315C27.5527 20.6315 26.4751 21.7312 26.4751 23.0877C26.4751 26.146 24.1407 28.4912 21.4207 28.4912C18.7008 28.4912 16.3664 26.146 16.3664 23.0877Z" fill="#FF7C7C"></path></g> <defs><clipPath id="clip0"><rect width="180" height="46.6667" fill="white"></rect></clipPath></defs></svg>