 <svg
                data-v-d9174172=""
                xmlns="http://www.w3.org/2000/svg"
                xmlns:xlink="http://www.w3.org/1999/xlink"
                width="47"
                height="49"
                viewBox="0 0 47 49"
                fill="none"
              >
                <mask
                  id="mask0"
                  mask-type="alpha"
                  maskUnits="userSpaceOnUse"
                  x="0"
                  y="0"
                  width="47"
                  height="49"
                >
                  <path
                    fill-rule="evenodd"
                    clip-rule="evenodd"
                    d="M9.47597 0C4.24253 0 0 4.24254 0 9.47597V38.6935C0 43.927 4.24253 48.1695 9.47597 48.1695H22.9002C35.9838 48.1695 46.5902 37.5632 46.5902 24.4796V23.6899C46.5902 10.6063 35.9838 0 22.9002 0H9.47597ZM17.2401 23.8312C17.2401 22.4311 16.105 21.296 14.7048 21.296C13.3047 21.296 12.1696 22.4311 12.1696 23.8312C12.1696 29.6355 16.7481 34.4792 22.5641 34.4792C28.3801 34.4792 32.9585 29.6355 32.9585 23.8312C32.9585 22.4311 31.8235 21.296 30.4233 21.296C29.0231 21.296 27.8881 22.4311 27.8881 23.8312C27.8881 26.9881 25.4292 29.4088 22.5641 29.4088C19.699 29.4088 17.2401 26.9881 17.2401 23.8312Z"
                    fill="#FFD6A5"
                  ></path>
                </mask>
                <g mask="url(#mask0)">
                  <rect
                    x="-10.7812"
                    y="-12.813"
                    width="67.7675"
                    height="69.9773"
                    fill="url(#pattern0)"
                  ></rect>
                  <rect
                    x="-10.7812"
                    y="-12.813"
                    width="67.7675"
                    height="69.9773"
                    fill="#1D1818"
                  ></rect>
                </g>
              </svg>
            